<!-- generated by scripts/flame-masks.py - do not edit by hand -->
<svg xmlns="http://www.w3.org/2000/svg" viewBox="0 0 100 100">
  <path fill="#fff" d="M96.4 50.0L96.1 52.1L95.5 54.1L94.8 56.1L93.9 58.0L92.5 59.7L90.6 61.2L88.1 62.4L85.5 63.3L83.4 64.3L82.2 65.5L82.1 67.3L82.9 69.6L83.8 72.3L84.4 75.0L84.0 77.1L82.8 78.6L81.0 79.6L79.1 80.5L77.6 81.5L76.4 83.1L75.4 85.0L74.4 87.0L73.1 88.7L71.5 89.9L69.6 90.6L67.6 91.1L65.6 91.5L63.6 91.9L61.6 92.1L59.5 91.7L57.4 90.5L55.2 88.7L53.3 86.8L51.6 85.5L50.0 85.3L48.4 86.5L46.5 88.6L44.4 91.0L42.2 92.8L40.0 93.6L38.0 93.3L36.2 92.3L34.6 91.1L32.9 90.1L31.0 89.4L29.1 88.8L27.2 88.1L25.6 87.0L24.2 85.5L23.0 83.8L21.8 82.2L20.5 80.8L19.1 79.5L17.9 78.1L17.2 76.2L17.2 73.9L17.8 71.3L18.5 68.8L18.7 66.9L17.8 65.5L15.7 64.6L12.8 64.0L9.6 63.1L6.9 61.9L5.2 60.2L4.6 58.2L4.6 56.1L5.0 54.1L5.2 52.0L5.4 50.0L5.7 48.0L6.4 46.1L7.5 44.2L8.8 42.5L10.0 40.9L10.8 39.2L11.1 37.3L11.1 35.4L11.5 33.5L12.5 31.9L14.3 30.8L16.6 30.1L18.9 29.5L20.5 28.6L21.2 27.0L20.9 24.6L20.3 21.6L19.8 18.4L19.9 15.6L20.9 13.5L22.4 12.1L24.4 11.2L26.4 10.6L28.5 10.1L30.6 9.7L32.7 9.6L35.0 10.0L37.3 10.8L39.4 11.7L41.4 12.1L43.1 11.9L44.7 10.9L46.4 9.5L48.1 8.5L50.0 8.2L51.8 9.0L53.6 10.4L55.2 11.8L56.8 12.6L58.6 12.4L60.7 11.2L63.1 9.6L65.7 8.2L68.2 7.5L70.4 7.7L72.2 8.7L73.8 10.1L75.3 11.7L76.6 13.4L77.7 15.3L78.4 17.5L78.6 20.1L78.5 22.8L78.5 25.1L78.9 26.9L80.2 28.1L82.2 28.8L84.6 29.3L86.8 30.2L88.2 31.6L88.7 33.4L88.5 35.5L88.3 37.6L88.5 39.4L89.5 41.0L91.2 42.5L93.3 44.1L95.0 45.9L96.1 47.9Z"/>
</svg>
