<?xml version="1.0" encoding="utf-8"?>
<svg width="12pt" height="12pt" viewBox="0 0 12 12" version="1.1" id="svg20" xmlns="http://www.w3.org/2000/svg">
  <circle style="stroke: rgb(0, 0, 0); fill: rgb(88, 89, 91); paint-order: stroke;" cx="6" cy="6" r="5"/>
  <rect x="4.748" y="5.5" width="2.6" height="0.377" style="stroke: rgb(0, 0, 0); paint-order: stroke; stroke-width: 0px; transform-box: fill-box; transform-origin: 50% 50%; fill: rgb(67, 35, 0);" transform="matrix(0.866025, -0.5, 0.5, 0.866025, -0.531432, 0.124376)"/>
  <g aria-label="Λ" style="font-style:normal;font-variant:normal;font-weight:normal;font-stretch:normal;font-size:7.99999952px;line-height:0;font-family:Andika;-inkscape-font-specification:Andika;font-variant-ligatures:normal;font-variant-caps:normal;font-variant-numeric:normal;font-feature-settings:normal;text-align:start;writing-mode:lr-tb;text-anchor:start;opacity:1;vector-effect:none;fill:#000006;fill-opacity:1;stroke:none;stroke-width:0.15000001;stroke-linecap:square;stroke-linejoin:bevel;stroke-miterlimit:4;stroke-dasharray:none;stroke-dashoffset:0;stroke-opacity:1;paint-order:markers stroke fill" id="text818-3">
    <path d="M 2.5718994,8.6588707 C 2.8264567,8.6139488 3.0248617,8.5671552 3.1671143,8.5184898 3.3131104,8.466081 3.4066976,8.385596 3.447876,8.2770348 L 5.4918213,2.0665855 C 5.6078695,1.9542808 5.7463786,1.8569501 5.9073487,1.7745934 c 0.16097,-0.0861 0.3069661,-0.1572266 0.4379882,-0.213379 l 2.3583985,6.7158204 c 0.033691,0.1048177 0.1010741,0.1871744 0.2021484,0.2470703 0.1048177,0.059896 0.27889,0.1048179 0.5222168,0.1347656 V 8.9564781 H 6.9180908 V 8.6588707 C 7.2063395,8.6401532 7.4066162,8.6027183 7.5189209,8.546566 7.6312256,8.4866702 7.664917,8.3968265 7.6199951,8.2770348 l -1.7800293,-5.14917 -1.701416,5.14917 c -0.033691,0.1160481 0.014974,0.2002766 0.1459961,0.2526855 0.1347657,0.052409 0.3556316,0.095459 0.6625977,0.1291504 V 8.9564781 H 2.5718994 Z" style="font-style: normal; font-variant: normal; font-weight: normal; font-stretch: normal; font-size: 11.5px; line-height: 0; font-family: &quot;Gentium Book Plus&quot;; stroke-width: 0.15; fill: rgb(255, 130, 0);" id="path6915"/>
  </g>
</svg>