<!-- generated by scripts/flame-ring.py - do not edit by hand -->
<svg xmlns="http://www.w3.org/2000/svg" viewBox="0 0 100 100">
  <radialGradient id="fire" cx="50" cy="50" r="50" gradientUnits="userSpaceOnUse">
    <stop offset="0.0" stop-color="hsl(48 100% 85%)" stop-opacity="1.0"/>
    <stop offset="0.74" stop-color="hsl(48 100% 80%)" stop-opacity="1.0"/>
    <stop offset="0.82" stop-color="hsl(42 98% 62%)" stop-opacity="1.0"/>
    <stop offset="0.88" stop-color="hsl(24 96% 55%)" stop-opacity="1.0"/>
    <stop offset="0.93" stop-color="hsl(12 90% 48%)" stop-opacity="0.95"/>
    <stop offset="0.965" stop-color="hsl(5 75% 38%)" stop-opacity="0.8"/>
    <stop offset="0.99" stop-color="hsl(5 75% 38%)" stop-opacity="0.0"/>
  </radialGradient>
  <circle cx="50" cy="50" r="44.5" fill="url(#fire)"/>
  <path fill="url(#fire)" d="M47.5 7.0C44.5 4.3 48.1 2.3 52.8 0.5C51.3 3.4 54.0 5.8 52.5 7.0Z"/>
  <path fill="url(#fire)" d="M61.3 8.5C59.3 6.3 61.8 6.0 62.8 5.3C63.2 7.1 66.7 9.5 65.3 9.8Z"/>
  <path fill="url(#fire)" d="M73.3 13.8C72.4 10.2 76.0 10.9 80.3 12.1C77.9 13.3 79.0 16.7 77.2 16.6Z"/>
  <path fill="url(#fire)" d="M83.5 22.9C83.2 19.7 85.6 20.9 86.8 20.8C86.0 22.7 87.5 27.2 86.1 26.5Z"/>
  <path fill="url(#fire)" d="M90.1 34.3C91.8 30.6 94.8 33.5 98.0 37.6C94.7 36.9 93.2 40.2 91.7 39.1Z"/>
  <path fill="url(#fire)" d="M93.0 47.9C94.6 45.4 95.7 47.6 96.8 48.6C95.1 49.4 93.7 53.4 93.0 52.1Z"/>
  <path fill="url(#fire)" d="M91.6 61.0C94.5 58.9 94.9 62.6 94.9 67.2C93.2 65.2 90.6 67.2 90.2 65.6Z"/>
  <path fill="url(#fire)" d="M86.1 73.5C89.1 72.3 88.8 74.9 89.5 76.0C87.2 75.8 83.3 78.6 83.5 77.1Z"/>
  <path fill="url(#fire)" d="M77.3 83.3C81.2 83.6 79.4 87.1 76.5 91.3C76.2 88.2 72.7 88.0 73.3 86.3Z"/>
  <path fill="url(#fire)" d="M65.3 90.2C68.1 90.9 66.4 92.5 65.9 93.7C64.6 92.5 60.3 92.5 61.3 91.5Z"/>
  <path fill="url(#fire)" d="M52.4 93.0C55.3 95.3 52.0 97.0 48.0 98.5C49.1 96.0 46.2 94.0 47.6 93.0Z"/>
  <path fill="url(#fire)" d="M38.9 91.6C40.9 94.0 38.4 94.5 37.9 95.5C37.1 93.3 33.1 90.5 34.6 90.2Z"/>
  <path fill="url(#fire)" d="M26.7 86.3C27.6 90.2 23.6 89.7 18.9 88.6C21.7 87.0 20.8 83.4 22.7 83.3Z"/>
  <path fill="url(#fire)" d="M16.4 77.0C16.6 80.0 14.4 78.9 13.2 79.0C14.0 77.2 12.7 73.0 14.0 73.6Z"/>
  <path fill="url(#fire)" d="M9.8 65.6C8.7 69.0 6.2 66.2 3.5 62.2C6.1 62.9 7.1 59.9 8.4 61.0Z"/>
  <path fill="url(#fire)" d="M7.0 52.3C5.2 55.0 4.0 52.6 2.8 51.8C4.7 50.8 6.2 46.4 7.0 47.8Z"/>
  <path fill="url(#fire)" d="M8.3 39.1C5.0 41.2 4.4 37.2 4.3 32.0C6.4 34.4 9.3 32.6 9.9 34.3Z"/>
  <path fill="url(#fire)" d="M14.0 26.4C11.3 27.6 11.6 25.2 11.1 24.2C13.1 24.3 16.7 21.6 16.4 23.0Z"/>
  <path fill="url(#fire)" d="M22.8 16.6C19.1 16.4 20.8 13.1 23.4 9.4C23.8 12.2 27.2 12.2 26.7 13.8Z"/>
  <path fill="url(#fire)" d="M34.6 9.8C31.5 9.0 33.3 7.2 33.4 6.0C35.1 7.3 39.9 7.3 38.9 8.4Z"/>
</svg>
