<!-- generated by scripts/flame-ring.py - do not edit by hand -->
<svg xmlns="http://www.w3.org/2000/svg" viewBox="0 0 100 100">
  <radialGradient id="fire" cx="50" cy="50" r="50" gradientUnits="userSpaceOnUse">
    <stop offset="0.0" stop-color="hsl(48 100% 85%)" stop-opacity="1.0"/>
    <stop offset="0.74" stop-color="hsl(48 100% 80%)" stop-opacity="1.0"/>
    <stop offset="0.82" stop-color="hsl(42 98% 62%)" stop-opacity="1.0"/>
    <stop offset="0.88" stop-color="hsl(24 96% 55%)" stop-opacity="1.0"/>
    <stop offset="0.93" stop-color="hsl(12 90% 48%)" stop-opacity="0.95"/>
    <stop offset="0.965" stop-color="hsl(5 75% 38%)" stop-opacity="0.8"/>
    <stop offset="0.99" stop-color="hsl(5 75% 38%)" stop-opacity="0.0"/>
  </radialGradient>
  <circle cx="50" cy="50" r="44.5" fill="url(#fire)"/>
  <path fill="url(#fire)" d="M47.5 7.0C44.5 4.3 48.1 2.3 52.8 0.5C51.3 3.4 54.0 5.8 52.5 7.0Z"/>
  <path fill="url(#fire)" d="M66.8 10.3C65.1 7.9 67.6 7.9 68.7 7.4C68.8 9.2 72.0 12.1 70.5 12.2Z"/>
  <path fill="url(#fire)" d="M82.1 21.3C82.1 17.6 85.5 19.2 89.3 21.5C86.6 22.1 86.8 25.6 85.1 25.1Z"/>
  <path fill="url(#fire)" d="M91.4 38.2C92.5 35.2 94.1 37.2 95.4 37.6C93.9 39.1 93.4 43.8 92.4 42.6Z"/>
  <path fill="url(#fire)" d="M92.5 57.1C95.8 54.8 96.9 58.8 97.6 63.9C95.1 61.7 92.2 63.7 91.4 62.0Z"/>
  <path fill="url(#fire)" d="M84.9 75.2C87.7 74.2 87.2 76.7 87.5 78.1C85.6 77.6 82.1 79.9 82.3 78.5Z"/>
  <path fill="url(#fire)" d="M70.8 87.7C74.3 88.3 71.9 91.2 68.6 94.3C68.8 91.7 65.6 91.2 66.5 89.8Z"/>
  <path fill="url(#fire)" d="M52.3 93.0C55.0 94.8 52.7 96.0 52.2 97.2C51.0 95.3 46.4 93.8 47.8 93.0Z"/>
  <path fill="url(#fire)" d="M33.6 89.8C35.2 93.4 31.2 93.5 26.2 92.9C28.8 91.2 27.3 88.0 29.1 87.7Z"/>
  <path fill="url(#fire)" d="M17.7 78.5C18.1 81.3 15.9 80.3 14.6 80.2C15.3 78.6 13.8 74.6 15.1 75.2Z"/>
  <path fill="url(#fire)" d="M8.6 61.9C7.0 65.2 4.7 62.4 2.3 58.8C4.9 59.4 6.3 56.0 7.5 57.2Z"/>
  <path fill="url(#fire)" d="M7.6 42.6C5.3 44.9 4.7 42.5 3.6 42.0C5.7 41.0 8.2 36.8 8.6 38.2Z"/>
  <path fill="url(#fire)" d="M14.8 25.1C10.8 25.8 11.5 21.8 12.9 17.2C14.3 20.1 18.0 19.3 17.9 21.2Z"/>
  <path fill="url(#fire)" d="M29.5 12.2C26.5 11.8 27.9 9.9 28.1 8.6C29.7 9.7 34.1 9.2 33.2 10.3Z"/>
</svg>
