<!-- generated by scripts/flame-masks.py - do not edit by hand -->
<svg xmlns="http://www.w3.org/2000/svg" viewBox="0 0 100 100">
  <circle cx="50" cy="50" r="36.5" fill="#fff"/>
  <path fill="#fff" d="M46.5 15.0C42.3 9.1 47.6 4.9 55.5 1.0C52.5 7.3 55.6 12.5 53.5 15.0Z"/>
  <path fill="#fff" d="M62.7 17.3C61.0 13.2 64.4 12.5 65.5 10.9C65.6 14.4 69.7 19.2 67.7 19.7Z"/>
  <path fill="#fff" d="M75.3 25.6C76.5 19.7 82.1 21.4 88.8 24.8C83.4 26.0 82.2 31.0 79.4 30.7Z"/>
  <path fill="#fff" d="M83.5 39.3C86.1 35.0 89.2 37.1 91.5 36.4C88.3 39.4 86.7 46.6 84.8 45.1Z"/>
  <path fill="#fff" d="M84.9 54.4C91.4 51.5 94.1 57.7 95.9 66.6C90.8 62.1 85.2 63.8 83.3 61.2Z"/>
  <path fill="#fff" d="M79.1 69.7C83.6 69.1 83.6 72.6 84.8 74.5C81.3 73.5 75.7 76.1 75.6 74.0Z"/>
  <path fill="#fff" d="M68.1 80.1C73.5 82.4 70.5 87.4 65.2 93.2C65.7 87.7 61.3 85.5 62.3 82.9Z"/>
  <path fill="#fff" d="M53.0 85.0C56.6 88.8 53.9 91.5 54.5 94.0C52.0 90.0 45.2 86.6 47.0 85.0Z"/>
  <path fill="#fff" d="M38.0 83.1C39.4 89.8 32.9 91.0 24.2 90.9C29.5 86.9 28.8 81.2 31.7 80.0Z"/>
  <path fill="#fff" d="M24.4 74.0C24.1 78.4 20.8 77.6 19.0 78.5C20.5 75.3 18.9 69.2 20.9 69.7Z"/>
  <path fill="#fff" d="M16.6 61.0C12.8 65.8 8.4 62.0 3.8 56.4C9.3 57.4 12.7 53.2 15.2 54.6Z"/>
  <path fill="#fff" d="M15.2 45.1C10.9 47.9 9.0 44.7 6.5 45.2C10.8 43.4 15.5 37.2 16.5 39.3Z"/>
  <path fill="#fff" d="M20.5 30.9C13.2 30.5 13.2 23.8 14.8 15.5C18.0 21.6 24.2 22.2 24.8 25.4Z"/>
  <path fill="#fff" d="M32.3 19.7C27.9 18.1 29.2 14.8 28.2 12.8C31.5 15.2 38.2 15.3 37.3 17.3Z"/>
</svg>
